<svg width="275" height="125" viewBox="0 0 275 125" fill="none" xmlns="http://www.w3.org/2000/svg">
	<g clip-path="url(#clip0_1958_41)">
		<rect width="275" height="125" rx="30" fill="url(#paint0_linear_1958_41)"/>
		<path
			d="M33.2 42.2C31.45 42.2 29.95 41.8167 28.7 41.05C27.4667 40.2833 26.5167 39.25 25.85 37.95C25.2 36.65 24.875 35.2 24.875 33.6C24.875 31.9833 25.2 30.5333 25.85 29.25C26.5167 27.95 27.4667 26.9167 28.7 26.15C29.95 25.3833 31.45 25 33.2 25C34.4167 25 35.5083 25.1917 36.475 25.575C37.4417 25.9583 38.275 26.5083 38.975 27.225C39.6917 27.9417 40.2667 28.7917 40.7 29.775L37.65 32.225C37.4833 31.525 37.2083 30.8917 36.825 30.325C36.4583 29.7417 35.9667 29.2833 35.35 28.95C34.75 28.6 34.025 28.425 33.175 28.425C32.2083 28.425 31.3917 28.65 30.725 29.1C30.0583 29.5333 29.5583 30.1417 29.225 30.925C28.8917 31.6917 28.725 32.5833 28.725 33.6C28.725 34.6 28.8917 35.4917 29.225 36.275C29.5583 37.0583 30.0583 37.675 30.725 38.125C31.3917 38.5583 32.2083 38.775 33.175 38.775C34.025 38.775 34.75 38.6083 35.35 38.275C35.9667 37.925 36.4583 37.4667 36.825 36.9C37.2083 36.3167 37.4833 35.675 37.65 34.975L40.7 37.425C40.2667 38.4083 39.6917 39.2583 38.975 39.975C38.275 40.6917 37.4417 41.2417 36.475 41.625C35.5083 42.0083 34.4167 42.2 33.2 42.2ZM53.9846 42H50.4096V34.7C50.4096 33.95 50.2762 33.3583 50.0096 32.925C49.7596 32.4917 49.2179 32.275 48.3846 32.275C47.8179 32.275 47.3679 32.3833 47.0346 32.6C46.7179 32.8167 46.4846 33.1417 46.3346 33.575C46.2012 34.0083 46.1346 34.5583 46.1346 35.225L46.0346 33.95C46.1179 33.2 46.3096 32.4833 46.6096 31.8C46.9096 31.1167 47.3512 30.5667 47.9346 30.15C48.5346 29.7167 49.3012 29.5 50.2346 29.5C51.4012 29.5 52.3179 29.8417 52.9846 30.525C53.6512 31.2083 53.9846 32.1833 53.9846 33.45V42ZM46.1346 42H42.5596V25.25H46.1346V42ZM67.7012 42H65.6012C65.1678 42 64.7595 41.925 64.3762 41.775C63.9928 41.625 63.6762 41.3833 63.4262 41.05C63.1928 40.7 63.0762 40.2333 63.0762 39.65V35.425L63.1762 34.925C63.1762 34.175 63.0512 33.5917 62.8012 33.175C62.5512 32.7583 62.0095 32.55 61.1762 32.55C60.3928 32.55 59.6678 32.75 59.0012 33.15C58.3345 33.5333 57.7845 34.0333 57.3512 34.65L55.5512 32.05C55.9512 31.6 56.4428 31.1833 57.0262 30.8C57.6095 30.4167 58.2678 30.1083 59.0012 29.875C59.7512 29.625 60.5595 29.5 61.4262 29.5C62.9762 29.5 64.1762 29.9083 65.0262 30.725C65.8928 31.525 66.3262 32.6917 66.3262 34.225V38.425C66.3262 38.6917 66.3762 38.8833 66.4762 39C66.5928 39.1 66.7595 39.15 66.9762 39.15H67.7012V42ZM59.1012 42.275C58.1512 42.275 57.3762 42.025 56.7762 41.525C56.1762 41.0083 55.8762 40.2583 55.8762 39.275C55.8762 38.3417 56.1678 37.5917 56.7512 37.025C57.3512 36.4417 58.2262 35.95 59.3762 35.55L63.4512 34.025L63.7762 36.15L60.4762 37.525C59.9928 37.725 59.6512 37.925 59.4512 38.125C59.2678 38.3083 59.1762 38.5167 59.1762 38.75C59.1762 39.0333 59.2762 39.2583 59.4762 39.425C59.6928 39.575 60.0095 39.65 60.4262 39.65C60.8428 39.65 61.2178 39.6 61.5512 39.5C61.8845 39.3833 62.1595 39.225 62.3762 39.025C62.6095 38.825 62.7845 38.5833 62.9012 38.3C63.0178 38.0167 63.0762 37.6833 63.0762 37.3L63.1512 38.5C63.0345 39.05 62.8262 39.6167 62.5262 40.2C62.2428 40.7667 61.8178 41.2583 61.2512 41.675C60.7012 42.075 59.9845 42.275 59.1012 42.275ZM72.9656 42H69.3906V25.25H72.9656V42ZM79.0691 42H75.4941V25.25H79.0691V42ZM87.3227 42.25C86.0227 42.25 84.8977 41.9833 83.9477 41.45C83.0143 40.9167 82.2977 40.1667 81.7977 39.2C81.2977 38.2333 81.0477 37.125 81.0477 35.875C81.0477 34.6083 81.2977 33.5 81.7977 32.55C82.2977 31.5833 82.9977 30.8333 83.8977 30.3C84.7977 29.7667 85.8393 29.5 87.0227 29.5C88.3227 29.5 89.406 29.7583 90.2727 30.275C91.1393 30.7917 91.7893 31.4917 92.2227 32.375C92.656 33.2583 92.8727 34.2333 92.8727 35.3C92.8727 35.5667 92.856 35.85 92.8227 36.15C92.806 36.4333 92.781 36.65 92.7477 36.8H83.5977V34.75H90.2477L89.6727 35.225C89.6727 34.2583 89.456 33.525 89.0227 33.025C88.5893 32.5083 87.931 32.25 87.0477 32.25C86.2143 32.25 85.556 32.5083 85.0727 33.025C84.606 33.525 84.3727 34.2833 84.3727 35.3V36.225C84.3727 36.9417 84.4977 37.5333 84.7477 38C84.9977 38.45 85.3477 38.7917 85.7977 39.025C86.2643 39.2417 86.7893 39.35 87.3727 39.35C87.956 39.35 88.4477 39.275 88.8477 39.125C89.2477 38.975 89.581 38.7667 89.8477 38.5C90.1143 38.2167 90.3227 37.9 90.4727 37.55L92.6477 39.725C92.1977 40.375 91.5393 40.9583 90.6727 41.475C89.8227 41.9917 88.706 42.25 87.3227 42.25ZM106.353 42H102.778V34.7C102.778 33.95 102.644 33.3583 102.378 32.925C102.128 32.4917 101.586 32.275 100.753 32.275C100.186 32.275 99.7361 32.3833 99.4027 32.6C99.0861 32.8167 98.8527 33.1417 98.7027 33.575C98.5694 34.0083 98.5027 34.5583 98.5027 35.225L98.4027 33.95C98.4861 33.2 98.6777 32.4833 98.9777 31.8C99.2777 31.1167 99.7194 30.5667 100.303 30.15C100.903 29.7167 101.669 29.5 102.603 29.5C103.769 29.5 104.686 29.8417 105.353 30.525C106.019 31.2083 106.353 32.1833 106.353 33.45V42ZM98.5027 42H94.9277V29.75H98.5027V42ZM113.275 46.9C111.391 46.9 109.958 46.65 108.975 46.15C108.008 45.6667 107.525 45.0583 107.525 44.325C107.525 43.925 107.65 43.5917 107.9 43.325C108.15 43.0583 108.475 42.8417 108.875 42.675C109.291 42.525 109.741 42.425 110.225 42.375C109.725 42.2583 109.291 42.0583 108.925 41.775C108.575 41.475 108.4 41.0583 108.4 40.525C108.4 40.0917 108.525 39.6833 108.775 39.3C109.025 38.9167 109.341 38.5667 109.725 38.25C110.108 37.9333 110.508 37.675 110.925 37.475L111.35 37.625C111.233 37.7917 111.116 37.9833 111 38.2C110.9 38.4167 110.85 38.6417 110.85 38.875C110.85 39.1583 110.933 39.3833 111.1 39.55C111.283 39.7 111.625 39.775 112.125 39.775H116.425C117.791 39.775 118.791 40.0417 119.425 40.575C120.058 41.0917 120.375 41.8 120.375 42.7C120.375 43.4667 120.125 44.1667 119.625 44.8C119.125 45.45 118.35 45.9583 117.3 46.325C116.25 46.7083 114.908 46.9 113.275 46.9ZM113.575 44.4C114.808 44.4 115.733 44.2833 116.35 44.05C116.983 43.8333 117.3 43.525 117.3 43.125C117.3 42.8583 117.183 42.6667 116.95 42.55C116.733 42.45 116.383 42.4 115.9 42.4H110.725C110.641 42.4833 110.566 42.5833 110.5 42.7C110.433 42.8333 110.4 42.975 110.4 43.125C110.4 43.525 110.641 43.8333 111.125 44.05C111.625 44.2833 112.441 44.4 113.575 44.4ZM114 38.45C112.933 38.45 112 38.2667 111.2 37.9C110.4 37.5167 109.775 36.9833 109.325 36.3C108.875 35.6167 108.65 34.8417 108.65 33.975C108.65 33.0917 108.875 32.3167 109.325 31.65C109.775 30.9667 110.4 30.4417 111.2 30.075C112 29.6917 112.933 29.5 114 29.5C115.066 29.5 116 29.6917 116.8 30.075C117.616 30.4417 118.25 30.9667 118.7 31.65C119.15 32.3167 119.375 33.0917 119.375 33.975C119.375 34.8417 119.15 35.6167 118.7 36.3C118.25 36.9833 117.616 37.5167 116.8 37.9C116 38.2667 115.066 38.45 114 38.45ZM114 36.05C114.566 36.05 115.041 35.875 115.425 35.525C115.825 35.175 116.025 34.6583 116.025 33.975C116.025 33.2917 115.825 32.775 115.425 32.425C115.041 32.075 114.566 31.9 114 31.9C113.433 31.9 112.95 32.075 112.55 32.425C112.166 32.775 111.975 33.2917 111.975 33.975C111.975 34.6583 112.166 35.175 112.55 35.525C112.95 35.875 113.433 36.05 114 36.05ZM119.75 27.9L117.25 30.525L115.975 30.025L116.575 26.825L119.75 27.9ZM127.264 42.25C125.964 42.25 124.839 41.9833 123.889 41.45C122.956 40.9167 122.239 40.1667 121.739 39.2C121.239 38.2333 120.989 37.125 120.989 35.875C120.989 34.6083 121.239 33.5 121.739 32.55C122.239 31.5833 122.939 30.8333 123.839 30.3C124.739 29.7667 125.781 29.5 126.964 29.5C128.264 29.5 129.347 29.7583 130.214 30.275C131.081 30.7917 131.731 31.4917 132.164 32.375C132.597 33.2583 132.814 34.2333 132.814 35.3C132.814 35.5667 132.797 35.85 132.764 36.15C132.747 36.4333 132.722 36.65 132.689 36.8H123.539V34.75H130.189L129.614 35.225C129.614 34.2583 129.397 33.525 128.964 33.025C128.531 32.5083 127.872 32.25 126.989 32.25C126.156 32.25 125.497 32.5083 125.014 33.025C124.547 33.525 124.314 34.2833 124.314 35.3V36.225C124.314 36.9417 124.439 37.5333 124.689 38C124.939 38.45 125.289 38.7917 125.739 39.025C126.206 39.2417 126.731 39.35 127.314 39.35C127.897 39.35 128.389 39.275 128.789 39.125C129.189 38.975 129.522 38.7667 129.789 38.5C130.056 38.2167 130.264 37.9 130.414 37.55L132.589 39.725C132.139 40.375 131.481 40.9583 130.614 41.475C129.764 41.9917 128.647 42.25 127.264 42.25Z"
			fill="#8E23B4"/>
		<g style="mix-blend-mode:overlay" opacity="0.5">
			<mask id="mask0_1958_41" style="mask-type:alpha" maskUnits="userSpaceOnUse" x="134" y="-34" width="195"
				  height="195">
				<rect x="134" y="7.10303" width="158.81" height="158.81" transform="rotate(-15 134 7.10303)"
					  fill="#D9D9D9"/>
			</mask>
			<g mask="url(#mask0_1958_41)">
				<path
					d="M193.697 34.9504L205.385 6.98543C206.207 4.93847 207.389 3.28004 208.933 2.01011C210.476 0.740187 212.207 -0.151668 214.124 -0.665457C216.042 -1.17924 217.987 -1.27215 219.958 -0.944172C221.93 -0.616192 223.783 0.22875 225.519 1.59065L249.623 19.9649L279.228 21.7943C282.226 21.9044 284.831 22.8905 287.043 24.7526C289.254 26.6148 290.731 28.9307 291.473 31.7004C291.816 32.9788 291.972 34.307 291.942 35.6853C291.911 37.0635 291.627 38.4527 291.089 39.8528L280.191 69.4898L287.852 95.5242C288.957 99.2241 288.574 102.695 286.703 105.937C284.831 109.178 282.191 111.256 278.782 112.169C278.569 112.226 277.355 112.38 275.138 112.632L244.395 112.306L217.933 127.96C217.458 128.316 216.908 128.606 216.283 128.83C215.658 129.055 215.079 129.238 214.546 129.381C211.138 130.295 207.812 129.815 204.571 127.944C201.329 126.072 199.262 123.258 198.369 119.501L191.944 92.9643L167.89 72.8637C166.724 71.9203 165.783 70.8593 165.068 69.6809C164.353 68.5025 163.824 67.2741 163.481 65.9958C162.768 63.3326 162.876 60.6489 163.807 57.9447C164.738 55.2405 166.46 53.038 168.973 51.3371L193.697 34.9504ZM204.481 43.8779L176.222 62.4108L203.7 85.7041L211.238 116.395L240.841 99.0437L275.197 99.4288L266.337 68.9203L278.573 35.3283L244.748 33.0884L217.55 12.1178L204.481 43.8779Z"
					fill="#1C1B1F"/>
			</g>
		</g>
	</g>
	<defs>
		<linearGradient id="paint0_linear_1958_41" x1="50.5" y1="-12" x2="244" y2="144.5"
						gradientUnits="userSpaceOnUse">
			<stop stop-color="#EAC7FF"/>
			<stop offset="1" stop-color="#D19CFA"/>
		</linearGradient>
		<clipPath id="clip0_1958_41">
			<rect width="275" height="125" rx="30" fill="white"/>
		</clipPath>
	</defs>
</svg>