<svg width="275" height="125" viewBox="0 0 275 125" fill="none" xmlns="http://www.w3.org/2000/svg">
	<g filter="url(#filter0_d_1952_2)">
		<g clip-path="url(#clip0_1952_2)">
			<rect width="275" height="125" rx="30" fill="url(#paint0_linear_1952_2)"/>
			<g style="mix-blend-mode:overlay" opacity="0.5">
				<mask id="mask0_1952_2" style="mask-type:alpha" maskUnits="userSpaceOnUse" x="147" y="-27" width="177"
					  height="178">
					<rect x="147" y="11" width="144.298" height="144.298" transform="rotate(-15 147 11)"
						  fill="url(#paint1_radial_1952_2)"/>
				</mask>
				<g mask="url(#mask0_1952_2)">
					<path
						d="M258.29 124.345L248.953 89.4991L233.645 81.1519L234.685 108.261L192.434 110.868L191.645 98.6304L221.077 96.9686L217.765 47.4375L208.4 54.3038L213.691 74.0495L202.076 77.1618L194.762 49.8663L215.057 33.8467C218.055 31.487 220.295 29.8755 221.775 29.012C223.256 28.1485 224.673 27.5352 226.028 27.1721C228.061 26.6274 230.091 26.654 232.119 27.2519C234.146 27.8498 235.926 28.8772 237.457 30.3342L245.755 38.0702C249.361 41.4611 253.667 43.8863 258.675 45.3455C263.683 46.8048 268.945 46.7953 274.462 45.317L277.574 56.9321C271.186 58.6438 264.852 58.9144 258.574 57.7439C252.295 56.5734 246.684 54.3161 241.742 50.9719L242.926 69.3283L258.234 77.6755L269.905 121.232L258.29 124.345ZM233.962 21.9341C230.768 22.79 227.728 22.3853 224.844 20.7202C221.96 19.055 220.09 16.6254 219.234 13.4312C218.378 10.2371 218.783 7.19792 220.448 4.31381C222.113 1.42969 224.543 -0.4403 227.737 -1.29617C230.931 -2.15205 233.971 -1.74741 236.855 -0.0822658C239.739 1.58288 241.609 4.01253 242.465 7.20669C243.32 10.4009 242.916 13.44 241.251 16.3241C239.586 19.2082 237.156 21.0782 233.962 21.9341Z"
						fill="#1C1B1F"/>
				</g>
			</g>
			<path
				d="M28.925 42H25.35V25.25H30.075L32.8 31.475L34.375 36.45L35.95 31.475L38.675 25.25H43.4V42H39.825V35.725L40.325 28.975L38.325 34.55L36.25 39.1H32.5L30.425 34.55L28.4 28.975L28.925 35.725V42ZM57.4473 42H55.3473C54.9139 42 54.5056 41.925 54.1223 41.775C53.7389 41.625 53.4223 41.3833 53.1723 41.05C52.9389 40.7 52.8223 40.2333 52.8223 39.65V35.425L52.9223 34.925C52.9223 34.175 52.7973 33.5917 52.5473 33.175C52.2973 32.7583 51.7556 32.55 50.9223 32.55C50.1389 32.55 49.4139 32.75 48.7473 33.15C48.0806 33.5333 47.5306 34.0333 47.0973 34.65L45.2973 32.05C45.6973 31.6 46.1889 31.1833 46.7723 30.8C47.3556 30.4167 48.0139 30.1083 48.7473 29.875C49.4973 29.625 50.3056 29.5 51.1723 29.5C52.7223 29.5 53.9223 29.9083 54.7723 30.725C55.6389 31.525 56.0723 32.6917 56.0723 34.225V38.425C56.0723 38.6917 56.1223 38.8833 56.2223 39C56.3389 39.1 56.5056 39.15 56.7223 39.15H57.4473V42ZM48.8473 42.275C47.8973 42.275 47.1223 42.025 46.5223 41.525C45.9223 41.0083 45.6223 40.2583 45.6223 39.275C45.6223 38.3417 45.9139 37.5917 46.4973 37.025C47.0973 36.4417 47.9723 35.95 49.1223 35.55L53.1973 34.025L53.5223 36.15L50.2223 37.525C49.7389 37.725 49.3973 37.925 49.1973 38.125C49.0139 38.3083 48.9223 38.5167 48.9223 38.75C48.9223 39.0333 49.0223 39.2583 49.2223 39.425C49.4389 39.575 49.7556 39.65 50.1723 39.65C50.5889 39.65 50.9639 39.6 51.2973 39.5C51.6306 39.3833 51.9056 39.225 52.1223 39.025C52.3556 38.825 52.5306 38.5833 52.6473 38.3C52.7639 38.0167 52.8223 37.6833 52.8223 37.3L52.8973 38.5C52.7806 39.05 52.5723 39.6167 52.2723 40.2C51.9889 40.7667 51.5639 41.2583 50.9973 41.675C50.4473 42.075 49.7306 42.275 48.8473 42.275ZM62.7117 42H59.1367V29.75H62.7117V42ZM62.7117 35.525L62.6117 34.25C62.6784 33.6833 62.8034 33.125 62.9867 32.575C63.1701 32.0083 63.4201 31.4917 63.7367 31.025C64.0701 30.5583 64.4784 30.1917 64.9617 29.925C65.4451 29.6417 66.0117 29.5 66.6617 29.5C67.5784 29.5 68.2701 29.775 68.7367 30.325C69.2201 30.8583 69.4617 31.6083 69.4617 32.575C69.4617 33.225 69.3784 33.8083 69.2117 34.325C69.0617 34.825 68.9117 35.1917 68.7617 35.425H65.3117C65.5451 35.1917 65.7451 34.8833 65.9117 34.5C66.0951 34.1167 66.1867 33.75 66.1867 33.4C66.1867 33.05 66.1034 32.7583 65.9367 32.525C65.7701 32.2917 65.4867 32.175 65.0867 32.175C64.6867 32.175 64.3034 32.3167 63.9367 32.6C63.5701 32.8667 63.2701 33.25 63.0367 33.75C62.8201 34.25 62.7117 34.8417 62.7117 35.525ZM82.1543 42H80.0543C79.621 42 79.2126 41.925 78.8293 41.775C78.446 41.625 78.1293 41.3833 77.8793 41.05C77.646 40.7 77.5293 40.2333 77.5293 39.65V35.425L77.6293 34.925C77.6293 34.175 77.5043 33.5917 77.2543 33.175C77.0043 32.7583 76.4626 32.55 75.6293 32.55C74.846 32.55 74.121 32.75 73.4543 33.15C72.7876 33.5333 72.2376 34.0333 71.8043 34.65L70.0043 32.05C70.4043 31.6 70.896 31.1833 71.4793 30.8C72.0626 30.4167 72.721 30.1083 73.4543 29.875C74.2043 29.625 75.0126 29.5 75.8793 29.5C77.4293 29.5 78.6293 29.9083 79.4793 30.725C80.346 31.525 80.7793 32.6917 80.7793 34.225V38.425C80.7793 38.6917 80.8293 38.8833 80.9293 39C81.046 39.1 81.2126 39.15 81.4293 39.15H82.1543V42ZM73.5543 42.275C72.6043 42.275 71.8293 42.025 71.2293 41.525C70.6293 41.0083 70.3293 40.2583 70.3293 39.275C70.3293 38.3417 70.621 37.5917 71.2043 37.025C71.8043 36.4417 72.6793 35.95 73.8293 35.55L77.9043 34.025L78.2293 36.15L74.9293 37.525C74.446 37.725 74.1043 37.925 73.9043 38.125C73.721 38.3083 73.6293 38.5167 73.6293 38.75C73.6293 39.0333 73.7293 39.2583 73.9293 39.425C74.146 39.575 74.4626 39.65 74.8793 39.65C75.296 39.65 75.671 39.6 76.0043 39.5C76.3376 39.3833 76.6126 39.225 76.8293 39.025C77.0626 38.825 77.2376 38.5833 77.3543 38.3C77.471 38.0167 77.5293 37.6833 77.5293 37.3L77.6043 38.5C77.4876 39.05 77.2793 39.6167 76.9793 40.2C76.696 40.7667 76.271 41.2583 75.7043 41.675C75.1543 42.075 74.4376 42.275 73.5543 42.275ZM88.4008 42.25C87.5008 42.25 86.7508 42.0833 86.1508 41.75C85.5674 41.4167 85.1341 40.9583 84.8508 40.375C84.5674 39.7917 84.4258 39.125 84.4258 38.375V28.3L88.0008 26.425V37.725C88.0008 38.225 88.1091 38.575 88.3258 38.775C88.5591 38.975 88.8508 39.075 89.2008 39.075C89.5841 39.075 89.9341 38.95 90.2508 38.7C90.5841 38.4333 90.8424 38.125 91.0258 37.775L92.0508 40.7C91.7841 41.0333 91.3424 41.375 90.7258 41.725C90.1091 42.075 89.3341 42.25 88.4008 42.25ZM91.4008 32.475H82.6008V29.75H91.4008V32.475ZM105.083 42H101.508V34.7C101.508 33.95 101.375 33.3583 101.108 32.925C100.858 32.4917 100.317 32.275 99.4832 32.275C98.9165 32.275 98.4665 32.3833 98.1332 32.6C97.8165 32.8167 97.5832 33.1417 97.4332 33.575C97.2999 34.0083 97.2332 34.5583 97.2332 35.225L97.1332 33.95C97.2165 33.2 97.4082 32.4833 97.7082 31.8C98.0082 31.1167 98.4499 30.5667 99.0332 30.15C99.6332 29.7167 100.4 29.5 101.333 29.5C102.5 29.5 103.417 29.8417 104.083 30.525C104.75 31.2083 105.083 32.1833 105.083 33.45V42ZM97.2332 42H93.6582V25.25H97.2332V42ZM112.977 42.25C111.743 42.25 110.66 41.9833 109.727 41.45C108.81 40.9 108.102 40.1417 107.602 39.175C107.102 38.2083 106.852 37.1083 106.852 35.875C106.852 34.625 107.102 33.525 107.602 32.575C108.102 31.6083 108.81 30.8583 109.727 30.325C110.66 29.775 111.743 29.5 112.977 29.5C114.243 29.5 115.343 29.775 116.277 30.325C117.227 30.8583 117.952 31.6083 118.452 32.575C118.968 33.525 119.227 34.625 119.227 35.875C119.227 37.1083 118.968 38.2083 118.452 39.175C117.952 40.1417 117.227 40.9 116.277 41.45C115.343 41.9833 114.243 42.25 112.977 42.25ZM113.027 39.35C113.543 39.35 113.993 39.2333 114.377 39C114.76 38.7667 115.06 38.4 115.277 37.9C115.493 37.3833 115.602 36.7083 115.602 35.875C115.602 35.0417 115.493 34.375 115.277 33.875C115.06 33.3583 114.76 32.9833 114.377 32.75C113.993 32.5167 113.543 32.4 113.027 32.4C112.527 32.4 112.085 32.5167 111.702 32.75C111.318 32.9833 111.018 33.3583 110.802 33.875C110.585 34.375 110.477 35.0417 110.477 35.875C110.477 36.7083 110.585 37.3833 110.802 37.9C111.018 38.4 111.318 38.7667 111.702 39C112.085 39.2333 112.527 39.35 113.027 39.35ZM132.622 42H129.047V34.7C129.047 33.95 128.914 33.3583 128.647 32.925C128.397 32.4917 127.856 32.275 127.022 32.275C126.456 32.275 126.006 32.3833 125.672 32.6C125.356 32.8167 125.122 33.1417 124.972 33.575C124.839 34.0083 124.772 34.5583 124.772 35.225L124.672 33.95C124.756 33.2 124.947 32.4833 125.247 31.8C125.547 31.1167 125.989 30.5667 126.572 30.15C127.172 29.7167 127.939 29.5 128.872 29.5C130.039 29.5 130.956 29.8417 131.622 30.525C132.289 31.2083 132.622 32.1833 132.622 33.45V42ZM124.772 42H121.197V29.75H124.772V42Z"
				fill="#075A86"/>
		</g>
	</g>
	<defs>
		<filter id="filter0_d_1952_2" x="-25" y="-16" width="325" height="175" filterUnits="userSpaceOnUse"
				color-interpolation-filters="sRGB">
			<feFlood flood-opacity="0" result="BackgroundImageFix"/>
			<feColorMatrix in="SourceAlpha" type="matrix" values="0 0 0 0 0 0 0 0 0 0 0 0 0 0 0 0 0 0 127 0"
						   result="hardAlpha"/>
			<feOffset dy="9"/>
			<feGaussianBlur stdDeviation="12.5"/>
			<feComposite in2="hardAlpha" operator="out"/>
			<feColorMatrix type="matrix" values="0 0 0 0 0 0 0 0 0 0 0 0 0 0 0 0 0 0 0.15 0"/>
			<feBlend mode="normal" in2="BackgroundImageFix" result="effect1_dropShadow_1952_2"/>
			<feBlend mode="normal" in="SourceGraphic" in2="effect1_dropShadow_1952_2" result="shape"/>
		</filter>
		<linearGradient id="paint0_linear_1952_2" x1="50.5" y1="-12" x2="244" y2="144.5" gradientUnits="userSpaceOnUse">
			<stop stop-color="#B9E6FD"/>
			<stop offset="1" stop-color="#7ED3FC"/>
		</linearGradient>
		<radialGradient id="paint1_radial_1952_2" cx="0" cy="0" r="1" gradientUnits="userSpaceOnUse"
						gradientTransform="translate(219.149 83.1492) rotate(90) scale(76.6585)">
			<stop offset="0.208333" stop-color="white" stop-opacity="0.78"/>
			<stop offset="1" stop-color="white" stop-opacity="0"/>
		</radialGradient>
		<clipPath id="clip0_1952_2">
			<rect width="275" height="125" rx="30" fill="white"/>
		</clipPath>
	</defs>
</svg>